<?xml version="1.0" standalone="no"?>
<!DOCTYPE svg PUBLIC "-//W3C//DTD SVG 20010904//EN"
 "http://www.w3.org/TR/2001/REC-SVG-20010904/DTD/svg10.dtd">
<svg version="1.0" xmlns="http://www.w3.org/2000/svg"
 width="1536.000000pt" height="988.000000pt" viewBox="0 0 1536.000000 988.000000"
 preserveAspectRatio="xMidYMid meet">
<metadata>
Created by potrace 1.16, written by Peter Selinger 2001-2019
</metadata>
<g transform="translate(0.000000,988.000000) scale(0.100000,-0.100000)"
fill="#000000" stroke="none">
<path d="M11505 9863 c-57 -30 -190 -141 -265 -219 -87 -92 -221 -279 -474
-659 -99 -148 -240 -353 -314 -455 -154 -212 -235 -334 -386 -579 -59 -96
-134 -209 -167 -253 -74 -97 -250 -288 -397 -430 -91 -89 -117 -109 -156 -119
-57 -14 -66 -26 -29 -40 l28 -11 -35 -13 c-64 -24 -148 -18 -219 15 -83 39
-147 46 -666 65 -500 19 -549 24 -845 80 -129 25 -368 65 -530 90 -437 67
-610 105 -1390 300 -652 164 -1164 300 -1320 350 -74 24 -218 69 -320 100
-102 31 -360 113 -575 182 -214 69 -514 164 -665 212 -239 76 -361 124 -924
360 -727 306 -663 286 -1011 315 -355 30 -372 30 -467 7 -164 -39 -235 -92
-307 -230 -46 -89 -71 -180 -71 -264 0 -132 77 -408 170 -604 115 -243 361
-607 650 -958 228 -279 285 -389 283 -550 -1 -96 -18 -145 -126 -362 -89 -180
-155 -372 -233 -684 -59 -236 -103 -371 -164 -508 -50 -112 -66 -168 -81 -287
-17 -135 -6 -382 21 -494 43 -174 227 -696 268 -758 15 -23 16 -23 23 -6 4 11
6 69 3 129 -5 112 4 158 26 125 25 -39 43 -159 42 -278 -1 -117 0 -127 27
-185 16 -34 43 -75 60 -91 18 -17 42 -59 57 -100 15 -39 35 -83 46 -98 31 -45
163 -310 178 -358 7 -25 40 -104 72 -177 31 -73 60 -144 64 -158 8 -31 34 -33
34 -3 0 12 -90 290 -200 618 -212 634 -250 761 -274 939 -15 105 -22 280 -11
269 3 -2 17 -63 31 -134 18 -94 37 -156 71 -229 25 -55 47 -102 49 -104 10
-10 19 14 24 61 3 28 10 53 17 55 6 2 21 -16 32 -41 11 -25 24 -46 29 -46 6 0
12 33 14 74 5 106 24 120 35 27 4 -36 10 -51 19 -47 14 5 24 -15 24 -49 0 -50
106 -315 139 -348 19 -19 19 -19 26 12 3 17 10 33 15 36 11 7 72 -99 185 -325
54 -107 135 -250 181 -317 45 -67 114 -190 155 -275 228 -479 453 -789 659
-912 l82 -48 -29 -30 c-40 -42 -57 -50 -87 -38 -17 6 -35 6 -52 -1 -20 -7 -31
-6 -43 5 -20 17 -169 86 -187 86 -7 0 -26 19 -42 43 -44 62 -80 93 -93 80 -16
-16 5 -72 47 -127 19 -26 42 -62 50 -81 8 -19 37 -60 64 -90 62 -69 69 -92 40
-147 l-22 -42 37 -34 36 -33 24 25 c30 32 57 33 98 2 18 -13 66 -42 107 -66
73 -40 130 -85 130 -102 0 -18 -45 -6 -154 42 -127 55 -139 58 -134 33 2 -12
54 -44 143 -89 97 -50 145 -79 155 -98 10 -17 20 -24 30 -19 8 4 46 9 83 12
59 5 69 9 80 31 12 23 17 25 72 21 33 -1 63 -5 68 -8 4 -2 7 -24 7 -48 0 -34
5 -47 19 -55 51 -27 71 2 40 61 -11 23 -19 54 -17 72 3 31 5 32 58 40 30 4 76
14 101 22 72 23 97 20 105 -12 12 -55 16 -63 30 -63 8 0 14 4 14 9 0 16 91 40
187 49 51 5 99 14 106 20 7 6 23 9 35 5 16 -4 34 4 65 29 23 19 89 60 147 93
58 32 130 76 160 97 74 53 80 29 9 -35 -96 -87 -301 -242 -439 -334 -199 -133
-295 -188 -431 -248 -67 -30 -125 -58 -128 -61 -23 -25 260 30 1804 351 1616
336 1731 363 2010 475 220 87 313 155 670 484 72 66 144 133 161 148 l30 28
85 -66 c104 -83 380 -266 474 -315 42 -22 114 -47 180 -63 345 -81 460 -110
595 -151 250 -76 470 -154 575 -205 194 -94 731 -412 927 -550 132 -93 275
-234 450 -447 174 -211 178 -212 133 -32 -107 423 -242 826 -397 1184 -86 199
-133 286 -203 380 -86 114 -487 578 -600 695 -56 58 -130 142 -164 188 -34 45
-97 112 -139 148 -98 84 -369 265 -489 327 -51 26 -95 52 -99 58 -12 21 31 47
221 134 105 47 260 124 346 170 220 118 344 171 914 387 534 202 638 251 917
430 351 225 343 221 390 215 24 -2 75 -16 114 -30 38 -15 113 -33 165 -41 180
-29 850 -78 886 -65 12 4 -4 21 -60 68 -81 66 -131 129 -217 276 -77 131 -142
223 -200 280 -27 27 -50 54 -50 60 0 14 273 283 360 355 91 75 191 138 254
160 29 10 145 34 257 54 112 21 233 42 269 49 l64 13 -57 32 c-68 38 -77 62
-49 124 27 60 109 133 200 176 69 33 85 37 157 37 67 -1 92 -6 155 -33 153
-66 265 -177 341 -337 74 -157 107 -313 134 -640 22 -269 57 -557 65 -548 12
13 102 535 139 803 59 432 73 662 72 1190 0 432 0 437 30 650 47 334 78 449
219 810 49 124 94 247 101 273 13 55 8 186 -11 261 -16 59 -17 57 -71 -106
-23 -68 -57 -154 -76 -193 -51 -100 -209 -339 -277 -415 -65 -74 -201 -272
-299 -435 -51 -87 -86 -131 -159 -201 -92 -89 -258 -223 -308 -249 -35 -18
-290 -85 -324 -85 -33 0 -78 24 -94 51 -28 45 -41 282 -18 331 5 12 2 18 -13
23 -46 14 -150 -28 -420 -171 l-275 -144 -330 40 c-182 21 -482 55 -666 75
-578 61 -578 61 -561 93 7 14 1 38 -24 97 -67 153 -124 358 -144 520 -46 359
-56 792 -23 1005 40 258 107 543 193 828 95 310 110 373 92 372 -5 -1 -21 -8
-38 -17z m-10890 -5838 c4 -35 2 -33 -16 20 -13 37 -23 93 -25 145 l-4 85 20
-105 c11 -58 22 -123 25 -145z m1458 -575 c18 -87 57 -186 64 -159 2 9 -7 50
-21 92 -13 42 -22 77 -19 77 2 0 15 -24 28 -52 19 -41 25 -70 25 -127 0 -70 2
-78 52 -165 68 -118 209 -264 191 -197 -9 37 16 31 47 -11 18 -24 94 -104 169
-178 75 -75 161 -167 191 -205 131 -166 344 -343 443 -368 26 -7 41 -17 48
-33 10 -29 44 -32 58 -5 13 24 89 61 124 61 20 0 27 -5 27 -19 0 -22 -44 -61
-68 -61 -21 0 -52 -30 -52 -50 0 -9 20 -35 45 -57 55 -49 58 -79 15 -142 -33
-48 -50 -99 -50 -148 0 -38 -16 -83 -29 -83 -5 0 -12 27 -16 61 l-7 61 -42
-40 c-60 -57 -74 -63 -113 -44 -48 23 -81 6 -89 -48 -8 -49 -44 -80 -122 -106
-30 -9 -56 -24 -59 -33 -21 -67 -57 -89 -122 -71 -59 16 -53 37 33 117 81 74
140 154 155 209 22 80 -50 220 -237 461 -105 137 -177 235 -372 513 -151 215
-328 609 -355 792 -19 123 32 87 58 -42z m-647 -15 c3 -8 3 -19 0 -24 -10 -16
-36 -1 -36 20 0 22 28 26 36 4z m1761 -77 c-3 -8 -6 -5 -6 6 -1 11 2 17 5 13
3 -3 4 -12 1 -19z m142 -236 c45 -76 115 -180 156 -232 77 -98 131 -187 121
-197 -3 -4 -14 1 -24 10 -9 9 -36 29 -58 44 -91 62 -162 165 -232 336 -91 223
-79 235 37 39z m-118 -14 c17 -35 89 -147 160 -251 71 -103 139 -206 151 -229
38 -73 35 -179 -9 -277 l-16 -36 -12 112 -12 112 -70 123 c-110 191 -233 454
-233 497 0 23 10 10 41 -51z m1229 -878 c0 -28 -259 -66 -275 -39 -10 15 -6
17 81 33 93 17 194 20 194 6z m-950 -194 c0 -19 -17 -29 -37 -22 -12 5 -13 9
-3 21 16 19 40 19 40 1z m111 -150 c-41 -99 -47 -156 -16 -156 13 0 39 47 50
92 4 16 12 25 18 21 6 -4 8 -54 3 -151 l-6 -145 50 5 c65 7 80 20 81 77 l1 46
10 -43 9 -44 42 7 c23 4 87 17 142 30 55 13 141 31 190 40 55 10 112 28 147
47 56 30 78 30 78 2 0 -9 10 -14 29 -14 38 0 81 -16 81 -30 0 -15 -87 -52
-195 -83 -191 -55 -502 -129 -597 -142 -54 -7 -119 -23 -142 -35 -42 -20 -116
-91 -163 -155 l-22 -30 -1 25 c0 14 5 64 10 110 9 68 17 94 40 128 28 40 30
49 30 133 0 70 4 98 20 129 11 21 34 74 51 117 39 98 47 109 67 89 13 -13 12
-21 -7 -70z m947 -118 c-5 -15 -78 -24 -78 -9 0 12 18 19 53 20 19 1 27 -3 25
-11z m-649 -49 c42 -15 39 -31 -9 -58 l-40 -23 -16 37 c-22 55 -4 68 65 44z
m-584 -181 c26 -31 32 -62 15 -73 -16 -10 -114 89 -107 108 9 23 59 4 92 -35z
m1258 -5 c-24 -66 -146 -212 -202 -242 -21 -12 -22 -11 -13 5 9 17 214 254
219 254 1 0 -1 -8 -4 -17z m-1993 -355 c0 -16 -3 -19 -11 -11 -6 6 -8 16 -5
22 11 17 16 13 16 -11z m358 -284 c33 -14 35 -17 17 -24 -34 -13 -115 8 -115
30 0 15 57 12 98 -6z"/>
<path d="M3037 2173 c-16 -15 -5 -35 35 -63 22 -16 45 -30 50 -30 20 0 5 30
-32 64 -43 39 -44 39 -53 29z"/>
<path d="M3160 2051 c0 -20 13 -41 21 -35 15 9 10 44 -6 44 -8 0 -15 -4 -15
-9z"/>
<path d="M3500 1689 c0 -11 5 -17 10 -14 6 3 10 13 10 21 0 8 -4 14 -10 14 -5
0 -10 -9 -10 -21z"/>
<path d="M3553 1578 c-24 -11 -36 -34 -27 -49 9 -15 71 -10 85 7 9 11 10 20 2
32 -13 21 -31 24 -60 10z"/>
<path d="M1500 3098 c-14 -23 -18 -42 -14 -63 13 -63 58 -129 114 -168 20 -14
25 -26 26 -68 0 -31 7 -56 16 -65 14 -14 19 -13 49 14 l33 29 -17 43 c-32 81
-160 310 -173 310 -8 0 -23 -15 -34 -32z"/>
<path d="M1490 2605 c0 -3 6 -18 14 -33 7 -15 18 -48 25 -74 6 -26 27 -83 45
-125 l35 -78 -27 -47 c-37 -65 -26 -95 45 -123 65 -27 77 -37 103 -91 23 -46
39 -54 60 -29 11 13 9 19 -8 38 -11 12 -30 45 -42 72 -12 28 -27 57 -34 65 -7
8 -18 35 -25 60 -12 41 -114 282 -144 340 -11 22 -47 41 -47 25z"/>
<path d="M1430 2193 c0 -66 134 -352 156 -330 3 3 -16 57 -44 119 -27 62 -55
129 -62 149 -7 20 -21 47 -31 60 l-19 24 0 -22z"/>
<path d="M1793 1984 c-4 -10 2 -23 15 -33 11 -9 34 -41 50 -71 35 -69 163
-260 186 -279 14 -12 16 -11 16 5 -1 31 -34 95 -102 195 -35 52 -78 118 -96
147 -32 52 -57 66 -69 36z"/>
<path d="M1620 1811 c0 -28 107 -198 117 -187 10 9 -64 149 -91 175 -14 14
-26 19 -26 12z"/>
<path d="M1810 1478 c0 -27 17 -48 37 -48 11 0 10 6 -2 29 -20 40 -35 48 -35
19z"/>
<path d="M2002 1347 l-73 -30 -29 28 c-47 45 -47 9 -2 -81 56 -111 117 -190
198 -255 159 -129 154 -96 -13 89 -51 57 -93 108 -93 113 0 5 18 18 39 29 47
23 71 55 71 91 0 45 -19 48 -98 16z"/>
<path d="M2450 641 c0 -10 53 -31 78 -31 8 0 30 -11 48 -25 56 -43 77 -26 24
19 -43 36 -150 62 -150 37z"/>
</g>
</svg>
