<?xml version="1.0" standalone="no"?>
<!DOCTYPE svg PUBLIC "-//W3C//DTD SVG 20010904//EN"
 "http://www.w3.org/TR/2001/REC-SVG-20010904/DTD/svg10.dtd">
<svg version="1.0" xmlns="http://www.w3.org/2000/svg"
 width="1536.000000pt" height="261.000000pt" viewBox="0 0 1536.000000 261.000000"
 preserveAspectRatio="xMidYMid meet">
<metadata>
Created by potrace 1.16, written by Peter Selinger 2001-2019
</metadata>
<g transform="translate(0.000000,261.000000) scale(0.100000,-0.100000)"
fill="#000000" stroke="none">
<path d="M4950 2599 c-214 -23 -437 -76 -540 -128 -31 -15 -128 -75 -215 -134
-242 -161 -205 -149 -680 -212 -229 -30 -872 -151 -1120 -210 -307 -73 -450
-94 -785 -115 -336 -21 -440 -39 -585 -101 -122 -52 -404 -141 -599 -190 -189
-46 -248 -72 -314 -133 -99 -93 -136 -214 -94 -310 27 -59 55 -71 187 -80 88
-5 234 -25 317 -42 35 -7 36 -31 3 -44 -31 -12 -224 -32 -236 -24 -17 10 -67
-7 -93 -31 -35 -32 -33 -64 6 -102 36 -34 58 -41 218 -73 58 -12 157 -32 220
-45 131 -26 261 -41 435 -50 181 -9 314 -23 480 -50 152 -25 503 -62 1270
-134 574 -55 658 -60 1060 -72 193 -5 382 -14 420 -20 112 -16 1179 -22 1612
-10 380 11 477 20 585 54 l47 15 78 -46 c43 -24 112 -67 154 -94 91 -58 184
-99 294 -128 134 -35 362 -70 520 -80 218 -15 957 -6 1125 13 74 9 196 19 270
22 74 4 161 11 192 16 127 22 769 89 940 99 340 19 462 31 658 61 311 48 1009
146 1200 169 298 36 555 70 800 105 129 19 312 42 405 50 94 8 221 25 283 36
62 11 251 42 420 70 651 105 1369 302 1457 399 15 16 16 25 7 44 -13 28 -115
81 -182 95 -25 5 -94 32 -155 59 -231 104 -410 162 -710 226 -94 21 -241 53
-327 72 -185 40 -504 93 -783 129 -110 14 -326 44 -480 66 -610 87 -885 117
-927 101 -23 -10 -27 -8 -32 12 -3 12 -18 28 -33 35 -16 7 -138 31 -273 53
-135 22 -420 71 -635 110 -498 89 -642 113 -845 138 -91 12 -239 37 -330 56
-285 61 -401 81 -550 98 -167 20 -253 35 -400 70 -66 17 -133 26 -182 26 -43
0 -133 9 -200 20 -145 23 -455 44 -953 65 -198 8 -475 24 -615 34 -140 11
-349 25 -465 30 -299 14 -1223 21 -1325 10z"/>
</g>
</svg>
