<?xml version="1.0" standalone="no"?>
<!DOCTYPE svg PUBLIC "-//W3C//DTD SVG 20010904//EN"
 "http://www.w3.org/TR/2001/REC-SVG-20010904/DTD/svg10.dtd">
<svg version="1.0" xmlns="http://www.w3.org/2000/svg"
 viewBox="-9.0000000 -8.9933481 1554.0000 693.98670"
 preserveAspectRatio="xMidYMid meet">
<metadata>
Created by potrace 1.16, written by Peter Selinger 2001-2019
</metadata>
<g transform="translate(0.000000,676.000000) scale(0.100000,-0.100000)"
fill="#000000" stroke="none">
<path d="M4996 6749 c-308 -45 -716 -286 -1080 -639 -67 -64 -231 -250 -375
-421 -141 -169 -281 -328 -311 -354 -91 -78 -226 -162 -395 -245 -275 -134
-516 -215 -808 -270 -291 -54 -412 -94 -722 -233 -227 -102 -779 -377 -990
-492 -274 -149 -310 -180 -310 -265 0 -85 67 -143 330 -289 127 -70 216 -144
198 -162 -8 -8 -37 -4 -104 15 -135 37 -195 42 -262 22 -67 -19 -117 -72 -117
-122 0 -88 261 -299 535 -434 246 -120 433 -190 1255 -465 637 -213 947 -325
1384 -500 758 -303 839 -366 1141 -890 54 -94 125 -213 158 -265 232 -365 549
-711 676 -736 37 -8 82 9 99 37 51 81 34 564 -29 819 -39 157 -87 233 -280
447 -121 134 -229 263 -229 274 0 14 113 20 520 29 573 12 685 25 1140 129
396 92 442 96 537 50 23 -11 100 -75 170 -141 70 -66 164 -149 208 -185 172
-140 416 -282 570 -334 91 -30 203 -33 234 -5 33 30 26 65 -33 157 -29 46 -53
85 -52 86 2 2 83 -4 181 -12 98 -8 201 -12 229 -9 47 6 56 12 117 76 84 88
100 92 270 71 148 -18 176 -13 202 42 27 57 56 69 140 59 132 -15 181 -11 226
21 40 27 43 28 124 20 135 -13 164 -9 248 34 93 48 161 68 259 76 96 8 199 38
275 80 76 43 161 65 246 65 73 0 142 20 174 50 43 41 112 61 253 74 76 7 148
19 160 25 13 7 25 26 29 42 10 50 40 62 178 69 138 7 172 20 182 70 7 37 23
51 81 70 57 18 100 72 126 154 40 125 -4 255 -135 401 -81 91 -133 165 -121
177 9 9 235 32 468 49 240 16 539 7 669 -21 195 -42 366 -104 735 -268 124
-54 297 -127 385 -162 336 -132 812 -276 1110 -337 162 -33 371 -38 420 -12
47 26 67 54 72 101 5 48 -2 74 -81 303 -61 180 -96 327 -125 525 -40 273 -46
405 -45 965 0 546 7 691 41 890 15 90 16 118 6 217 -21 201 -67 328 -128 354
-55 23 -235 37 -321 24 -145 -20 -250 -66 -689 -304 -915 -496 -1590 -775
-2036 -840 -200 -30 -210 -26 -186 71 29 117 80 444 71 453 -14 13 -396 187
-543 247 -441 180 -1194 408 -1641 497 -288 57 -629 80 -1053 73 -387 -6 -404
-9 -832 -153 -181 -60 -339 -104 -378 -104 -23 0 -42 47 -51 123 -13 114 -76
229 -207 370 -140 152 -286 241 -569 345 -325 120 -826 241 -1302 317 -105 16
-198 18 -292 4z"/>
</g>
</svg>
