<?xml version="1.0" encoding="UTF-8" standalone="no"?>
<!-- Created with Inkscape (http://www.inkscape.org/) -->

<svg
  
  
   viewBox="2.4354854 7.6255847 163.01516 71.469575"
   version="1.1"
   id="svg1"
   xml:space="preserve"
   xmlns="http://www.w3.org/2000/svg"
   xmlns:svg="http://www.w3.org/2000/svg"><defs
     id="defs1" /><g
     id="layer1"
     transform="translate(-26.52599,-124.98108)"><path
       style="fill:#000000"
       d="m 104.5083,202.85898 c -0.76537,-0.50562 -2.65001,-2.08323 -2.72947,-2.28482 -0.296,-0.7509 -5.955358,-3.8571 -6.743445,-3.70121 -0.26002,0.0514 -1.254251,-0.31108 -2.788481,-1.01671 -1.97467,-0.90819 -2.223535,-0.99685 -2.453163,-0.87396 -0.203439,0.10888 -0.465959,0.002 -2.591985,-1.05146 -1.068747,-0.52976 -1.365945,-0.63951 -2.007193,-0.74119 -1.122976,-0.17808 -2.493239,-0.36557 -3.387138,-0.46345 -1.713125,-0.18759 -2.498724,-0.26947 -3.261688,-0.33996 -1.090597,-0.10076 -2.919059,-0.30342 -3.700762,-0.41018 -0.356485,-0.0487 -0.939826,-0.12601 -1.296312,-0.17181 -1.317338,-0.16928 -3.442253,-0.65532 -5.122523,-1.17169 -1.952609,-0.60007 -2.866131,-0.77875 -4.72198,-0.9236 -2.346548,-0.18314 -6.386984,-1.55877 -9.035653,-3.07633 -0.229991,-0.13177 -0.753542,-0.43244 -1.163447,-0.66816 -1.294989,-0.74467 -1.82199,-0.80824 -4.314517,-0.52044 -2.50335,0.28906 -4.727184,-0.31846 -6.438192,-1.75881 -0.623157,-0.52458 -2.291715,-1.0207 -5.89768,-1.75357 -0.533028,-0.10834 -2.933834,-0.24368 -4.359311,-0.24575 -1.809036,-0.003 -2.465265,-0.41355 -2.44125,-1.52867 0.0042,-0.19507 -0.02103,-0.51222 -0.05606,-0.70477 -0.104754,-0.57577 0.01483,-1.08455 0.339344,-1.44375 0.215267,-0.23827 0.286615,-0.39267 0.286615,-0.62021 0,-0.35992 0.385352,-0.68764 1.14098,-0.97036 0.683291,-0.25565 0.736042,-0.24921 2.162525,0.26411 0.755415,0.27184 0.533414,0.28355 3.111903,-0.16405 0.745585,-0.12942 1.381467,-0.26117 1.413071,-0.29277 0.0316,-0.0316 -0.243626,-0.53808 -0.611623,-1.12551 -0.367996,-0.58742 -0.803743,-1.31267 -0.968326,-1.61165 -2.271795,-4.12702 -2.941552,-5.79246 -2.932972,-7.29322 0.0054,-0.94811 0.15774,-1.16668 1.15618,-1.65902 0.58029,-0.28615 0.74505,-0.41188 0.911563,-0.6956 0.365942,-0.62352 0.914211,-1.15962 1.723796,-1.68552 0.437923,-0.28447 1.121499,-0.7971 1.519057,-1.13917 0.397558,-0.34207 0.937315,-0.72697 1.199459,-0.85533 0.262145,-0.12836 0.971829,-0.56339 1.577076,-0.96673 0.605247,-0.40335 1.552068,-1.02734 2.104046,-1.38665 1.03141,-0.6714 3.009827,-1.98817 5.728862,-3.81295 2.567437,-1.72305 3.919361,-2.48277 6.983358,-3.92437 0.937678,-0.44117 2.58638,-1.22826 3.72167,-1.77671 1.15858,-0.55971 2.467373,-1.17687 3.094422,-1.45916 0.25299,-0.1139 0.666974,-0.30218 0.919964,-0.4184 0.53988,-0.24802 2.161021,-0.88177 2.833646,-1.10775 1.535695,-0.51595 2.425842,-0.74046 5.195125,-1.31029 3.347444,-0.68881 3.757367,-0.79558 4.631172,-1.20632 0.689688,-0.32419 1.663663,-1.25026 2.387743,-2.2703 0.374254,-0.52722 0.472293,-0.54917 0.675327,-0.15119 0.945486,1.85331 3.547695,2.68524 5.653822,1.80755 0.469269,-0.19556 0.806652,-0.32195 3.04401,-1.14036 1.232299,-0.45077 2.253195,-0.82453 3.303505,-1.20945 1.309481,-0.47991 1.913471,-0.79281 3.261688,-1.68971 1.210883,-0.80554 1.887211,-1.22682 2.592624,-1.6149 0.183993,-0.10122 0.456848,-0.25866 0.606345,-0.34987 0.471573,-0.2877 0.445196,0.0128 -0.0546,0.62198 -0.690131,0.84123 -1.484157,2.5068 -1.130333,2.37102 0.07276,-0.0279 0.164959,-0.0508 0.204888,-0.0508 0.297842,0 3.173258,-2.36854 4.407108,-3.63022 1.3281,-1.35806 1.52819,-1.52262 1.52819,-1.25681 0,0.23193 -0.73109,1.44986 -1.67849,2.7962 -0.91065,1.29413 -0.9514,1.43215 -0.50135,1.698 0.88851,0.52486 3.29338,-0.7541 6.12351,-3.2566 1.91294,-1.69148 2.32881,-2.01644 2.32881,-1.81968 0,0.0279 -0.31464,0.47007 -0.6992,0.98269 -0.38455,0.51261 -0.78142,1.08256 -0.88193,1.26655 -0.10051,0.18399 -0.33031,0.54152 -0.51066,0.79451 -0.61128,0.85744 -0.69947,1.13001 -0.43811,1.35401 0.42841,0.36718 1.47144,0.5058 2.36263,0.314 0.20699,-0.0445 0.58885,-0.11476 0.84858,-0.15604 0.66903,-0.10633 0.45415,0.035 3.8645,-2.54258 0.84289,-0.63707 1.19071,-0.8403 1.31096,-0.76598 0.13971,0.0863 0.0913,0.20012 -0.24015,0.56487 -1.09115,1.20065 -1.26214,1.74135 -0.89441,2.82827 0.25132,0.74285 0.38678,0.88657 0.98212,1.04203 0.60512,0.15802 1.11001,-0.063 2.4933,-1.09137 1.22005,-0.90704 2.92556,-1.98015 2.92556,-1.84078 0,0.0528 -0.59874,0.96981 -1.24467,1.90628 -0.93497,1.35551 -0.81811,2.18 0.35851,2.52942 0.74217,0.2204 1.42886,-0.0505 3.36209,-1.32633 0.87342,-0.57641 0.99858,-0.63011 1.05741,-0.45364 0.11705,0.35116 -0.29482,1.02735 -1.05733,1.73586 -0.93616,0.86985 -1.14804,1.31571 -0.78244,1.6465 0.80805,0.73112 2.62877,0.37954 4.773,-0.92167 1.39946,-0.84925 -0.68266,1.9508 -2.32673,3.129 -1.16622,0.83575 -1.20987,1.19137 -0.16727,1.36284 6.66589,1.09633 8.29759,0.88168 13.13038,-1.72725 0.36799,-0.19865 0.98566,-0.52874 1.3726,-0.73353 0.67939,-0.35957 0.92182,-0.5584 1.6383,-1.3437 0.18404,-0.20173 0.52276,-0.45476 0.75269,-0.56228 0.22994,-0.10753 0.67108,-0.32393 0.98032,-0.48089 0.71883,-0.36486 0.85555,-0.37012 0.78759,-0.0303 -0.0281,0.14028 -0.0234,0.23886 0.0104,0.21906 0.858,-0.50253 2.19947,-0.94782 1.87356,-0.62191 -0.29949,0.29949 0.20964,0.31183 0.92206,0.0223 0.73903,-0.30029 0.776,-0.22972 0.1736,0.33135 -0.21766,0.20273 -0.36616,0.3982 -0.32998,0.43437 0.0362,0.0362 0.0919,0.0288 0.12394,-0.0164 0.0591,-0.0834 1.24568,-0.67359 1.76296,-0.87678 0.25028,-0.0983 0.29511,-0.0946 0.38749,0.0317 0.098,0.13401 0.13121,0.13233 0.5355,-0.027 0.51536,-0.20313 0.50847,-0.20253 0.50847,-0.0444 0,0.14818 0.2085,0.16068 0.57122,0.0342 0.4075,-0.14206 1.08434,0.12996 0.88138,0.35423 -0.15315,0.16923 0.0851,0.24511 0.26606,0.0847 0.0437,-0.0387 0.28644,-0.11128 0.53943,-0.16125 1.48135,-0.29262 1.50976,-0.25101 0.48643,0.71226 -0.30525,0.28734 -0.52065,0.54366 -0.47866,0.56961 0.113,0.0698 0.84923,-0.35457 1.33625,-0.77029 0.23426,-0.19996 0.50069,-0.36356 0.59206,-0.36356 0.43026,0 -0.61828,1.03227 -1.78489,1.7572 -1.03867,0.64543 -1.27064,0.83542 -1.02002,0.83542 0.0915,0 0.20206,-0.0329 0.24576,-0.0731 0.0437,-0.0402 0.39923,-0.19481 0.79006,-0.34353 0.83677,-0.31841 0.98059,-0.41243 1.94613,-1.27221 0.73511,-0.65458 1.2603,-0.86206 1.44121,-0.56935 0.0999,0.16156 -2.04266,2.19126 -2.94866,2.79341 -1.15212,0.76571 -1.17491,0.81942 -0.2543,0.59936 0.95681,-0.22872 2.35596,-0.99581 2.97639,-1.63181 0.52462,-0.5378 0.58793,-0.57711 0.97195,-0.60353 0.43139,-0.0297 0.56278,0.0694 0.36568,0.27565 -0.06,0.0628 -0.37214,0.47178 -0.69355,0.90877 -0.32142,0.43698 -0.61269,0.80706 -0.64727,0.82239 -0.0346,0.0153 -0.0629,0.0607 -0.0629,0.10081 0,0.1014 1.14042,-0.39332 1.54721,-0.67118 0.84622,-0.57802 1.12904,-0.63326 1.12904,-0.22052 0,0.2297 -0.0799,0.36026 -0.42833,0.69966 -0.57877,0.56379 -0.41518,0.6017 0.43505,0.10081 0.70416,-0.41484 0.70416,-0.41484 0.75661,-0.10384 0.0306,0.18166 0.12628,0.36002 0.22999,0.42888 0.27276,0.18111 0.21719,0.31083 -0.28144,0.65699 -0.25245,0.17525 -0.45944,0.34686 -0.45999,0.38136 -0.001,0.0928 0.23176,0.0761 0.29173,-0.0209 0.0284,-0.046 0.14355,-0.0836 0.25583,-0.0836 0.32438,0 0.25295,0.28238 -0.15129,0.59802 -0.77793,0.60744 -0.75173,0.84087 0.0544,0.4843 0.37812,-0.16727 0.71925,-0.15878 0.71925,0.0179 0,0.0532 0.12586,0.0641 0.33453,0.0288 0.47215,-0.0798 0.46958,0.18601 -0.004,0.45239 -0.52374,0.29435 -0.22864,0.5772 0.35149,0.33691 0.25367,-0.10508 0.53126,0.001 0.32923,0.12616 -0.20781,0.12843 -0.0948,0.34066 0.18089,0.33984 0.23013,-6.8e-4 0.27565,0.0323 0.29688,0.21481 0.0515,0.44267 -0.76007,1.02606 -2.32499,1.6713 -0.49607,0.20454 -3.49167,1.7225 -3.94657,1.99984 -0.27689,0.16882 -0.27689,0.16882 0.26672,0.16759 0.29899,-6.7e-4 0.8447,-0.0547 1.21268,-0.11996 0.36799,-0.0653 1.10834,-0.19633 1.64523,-0.29117 1.13062,-0.19973 3.85729,-0.25207 3.96602,-0.0761 0.0835,0.1351 -0.1607,0.29147 -0.5532,0.35424 -0.52083,0.0833 -0.25637,0.38577 0.33727,0.38577 0.15881,0 0.27543,0.0587 0.33397,0.16805 0.11898,0.22232 -0.12765,0.32247 -1.10504,0.44874 -0.94407,0.12197 -0.97044,0.24701 -0.0662,0.31409 0.71994,0.0534 1.0036,0.12108 1.0036,0.2394 0,0.0804 -0.52424,0.33511 -0.68965,0.33511 -0.0664,0 -0.18721,0.0734 -0.26843,0.16317 -0.0812,0.0897 -0.41635,0.24467 -0.74475,0.34428 -0.32839,0.0996 -0.65353,0.24701 -0.72253,0.32756 -0.12939,0.15104 -1.77716,1.25582 -1.87305,1.25582 -0.0296,0 -0.21177,0.0997 -0.40481,0.22156 -0.19303,0.12185 -0.76622,0.43053 -1.27374,0.68595 -0.92277,0.4644 -0.92277,0.4644 -0.46279,0.57021 2.44519,0.56248 6.22374,0.38264 8.13523,-0.38721 0.10244,-0.0413 0.46852,-0.1772 0.81351,-0.30209 1.88897,-0.68387 3.43905,-1.69625 6.86745,-4.48525 3.09278,-2.51598 3.36081,-2.72523 4.96546,-3.87654 0.64461,-0.46251 1.32256,-0.90839 1.50656,-0.99085 0.18399,-0.0825 1.04959,-0.50243 1.92356,-0.93324 0.87396,-0.43082 1.94656,-0.92062 2.38354,-1.08845 0.43698,-0.16783 0.90742,-0.35567 1.04541,-0.41741 1.07192,-0.47964 2.93423,-1.03984 3.4568,-1.03984 0.34144,0 -0.20826,0.3704 -1.6796,1.13175 -0.31049,0.16066 -0.56452,0.32927 -0.56452,0.37469 0,0.0454 -0.0627,0.0826 -0.13939,0.0826 -0.0767,0 -0.11424,0.0251 -0.0835,0.0559 0.0307,0.0307 0.14051,0.0166 0.24393,-0.0314 0.96535,-0.44807 3.87934,-0.73911 3.81029,-0.38055 -0.0154,0.0802 -0.13183,0.19546 -0.25866,0.25624 -0.31859,0.1527 -0.19753,0.29709 0.19628,0.23411 0.3553,-0.0568 0.52544,0.0783 0.30324,0.24073 -0.12322,0.0901 -0.12349,0.11519 -0.003,0.28708 0.16675,0.23807 0.11143,0.28742 -0.5565,0.49649 l -0.54362,0.17016 0.56453,0.005 c 0.44914,0.004 0.56452,0.0309 0.56452,0.13277 0,0.15151 -0.0439,0.17064 -0.7527,0.32807 -1.57385,0.34958 -1.66864,0.5092 -0.24224,0.40795 0.78664,-0.0558 1.03501,0.051 0.67468,0.29026 -0.22967,0.1525 -0.23274,0.31814 -0.007,0.37717 0.4546,0.11888 0.13665,0.34875 -0.55173,0.39889 -1.14458,0.0834 -2.09908,0.50675 -1.35931,0.60293 0.19611,0.0255 0.67645,0.089 1.06744,0.1412 0.98787,0.13181 1.39673,0.4176 0.81542,0.56998 -0.23347,0.0612 -0.17464,0.0788 0.41709,0.12514 0.80232,0.0628 1.23062,0.24033 1.16695,0.48379 -0.0376,0.144 0.005,0.16093 0.40514,0.16093 0.51328,0 0.6585,0.1224 0.31576,0.26615 -0.23502,0.0986 -0.23502,0.0986 0.16223,0.18113 0.77105,0.16023 0.30711,0.49079 -1.19177,0.84914 -1.07517,0.25705 -1.20672,0.36354 -0.45998,0.37234 0.36799,0.004 0.8196,0.0471 1.0036,0.0949 0.18399,0.0479 0.44743,0.11439 0.58543,0.14779 0.65676,0.159 -0.12703,0.56281 -1.27299,0.65587 -0.64107,0.0521 -0.75383,0.1882 -0.16475,0.1989 0.57313,0.0104 1.58979,0.1989 1.62385,0.30106 0.0174,0.0522 -0.10542,0.14014 -0.27294,0.19542 -0.42132,0.13905 -1.55018,0.41296 -1.7531,0.42537 -0.20863,0.0128 0.60783,0.23588 1.17086,0.31996 0.41467,0.0619 0.87933,0.23857 0.87687,0.33336 -0.004,0.1547 -0.17223,0.24469 -0.55473,0.29676 -0.39489,0.0538 -0.43353,0.0788 -0.46641,0.30284 -0.0204,0.13885 0.003,0.24698 0.0542,0.25062 0.47876,0.034 0.66333,0.20556 0.34954,0.32487 -0.3353,0.12748 -0.18197,0.27088 0.22882,0.214 0.39317,-0.0544 0.60625,0.0423 0.5301,0.2408 -0.0358,0.0932 -0.16016,0.13475 -0.40944,0.13673 -0.44768,0.004 -1.10696,0.28918 -0.8747,0.37896 0.0838,0.0324 0.37376,0.0358 0.64427,0.008 0.31837,-0.0333 0.51172,-0.0192 0.54825,0.0399 0.0776,0.12559 -0.12286,0.23704 -0.42917,0.23858 -0.14029,7e-4 -0.29083,0.0356 -0.33453,0.0775 -0.0437,0.0419 -0.24881,0.11018 -0.4558,0.15167 -0.37635,0.0754 -0.37635,0.0754 -0.0418,0.25149 0.18399,0.0968 0.40003,0.2544 0.48007,0.35013 0.11145,0.13329 0.24253,0.17406 0.55959,0.17406 0.49217,0 0.56239,0.075 0.33767,0.36068 -0.10924,0.13888 -0.13643,0.23232 -0.0781,0.26839 0.14957,0.0924 0.0469,0.22443 -0.25127,0.32294 -0.36454,0.12044 -0.43275,0.30205 -0.11409,0.30377 0.51387,0.003 0.60153,0.34815 0.11316,0.44583 -0.31458,0.0629 -0.25963,0.22195 0.0767,0.22195 0.55,0 0.5316,0.48021 -0.0238,0.62109 -0.33248,0.0843 -0.39505,0.25458 -0.15908,0.43278 0.13388,0.10109 0.12317,0.1195 -0.12545,0.21573 -0.28551,0.11051 -0.33626,0.22152 -0.17499,0.38279 0.0733,0.0733 0.0703,0.1287 -0.0123,0.22826 -0.0919,0.11068 -0.0789,0.16356 0.0818,0.33468 0.21935,0.23349 0.16551,0.27712 -0.57207,0.46357 -0.45616,0.11531 -0.38551,0.19346 0.22402,0.24779 0.55835,0.0498 0.80159,0.41863 0.27606,0.41863 -0.53243,0 -0.40987,0.27608 0.16325,0.36773 0.38049,0.0608 0.45335,0.1517 0.30972,0.38621 -0.0917,0.14968 -0.086,0.18746 0.039,0.25846 0.38967,0.22138 0.0933,0.48954 -0.54362,0.49186 -0.44891,0.002 -0.38692,0.13882 0.11096,0.2456 0.52933,0.11352 0.77109,0.23932 0.71929,0.37429 -0.022,0.0573 0.035,0.15095 0.12665,0.20818 0.12164,0.076 0.15288,0.15872 0.11577,0.30661 -0.028,0.11141 -0.005,0.27523 0.05,0.36405 0.14877,0.23822 -0.0239,0.39735 -0.56172,0.51771 -0.45502,0.10183 -0.54239,0.24279 -0.15049,0.24279 0.31554,0 0.78131,0.2474 0.78131,0.41499 0,0.17898 -0.45829,0.38138 -1.08723,0.48015 -0.45998,0.0722 -0.45998,0.0722 -0.20619,0.20863 0.13958,0.075 0.39116,0.16216 0.55906,0.19365 0.87095,0.1634 0.61084,0.55017 -0.47832,0.71123 -1.42076,0.2101 -1.41537,0.22623 0.18119,0.54184 0.53313,0.1054 0.45782,0.389 -0.12198,0.45934 -0.39374,0.0478 -0.39374,0.0478 0.10806,0.21909 0.45458,0.1552 0.78938,0.53457 0.47177,0.53457 -0.0459,0 -0.13321,0.0495 -0.19399,0.10996 -0.0608,0.0605 -0.18341,0.15058 -0.2725,0.20024 -0.14696,0.0819 -0.12141,0.11524 0.27561,0.35953 0.47047,0.28949 0.51149,0.43469 0.14154,0.50113 -0.23283,0.0418 -0.23283,0.0418 -0.0637,0.25026 0.23726,0.29246 0.1129,0.50202 -0.29892,0.50372 -0.68431,0.003 -0.54083,0.17582 0.38625,0.46574 0.28959,0.0906 0.0154,0.2424 -0.39184,0.21697 -0.51624,-0.0322 -0.55087,0.0608 -0.096,0.25781 0.48251,0.20904 0.44422,0.39633 -0.081,0.39633 -0.34665,0 -0.40702,0.0222 -0.36416,0.13389 0.0732,0.19085 -0.1236,0.28902 -0.55842,0.27851 -0.207,-0.005 -0.43281,-0.004 -0.5018,0.002 -0.15951,0.0141 0.43751,0.24463 0.87814,0.33906 1.41299,0.30279 1.3653,0.83507 -0.0627,0.70006 -0.39517,-0.0374 -0.56452,-0.025 -0.56452,0.0411 0,0.0519 0.047,0.0937 0.10454,0.0929 0.17884,-0.003 1.06485,0.29104 1.0656,0.35319 4e-4,0.0324 -0.12863,0.0832 -0.28671,0.11286 -0.39331,0.0738 -0.57684,0.5079 -0.24947,0.59006 0.11373,0.0286 0.24474,0.12284 0.29115,0.20955 0.0951,0.17768 0.0822,0.18081 -0.65331,0.15871 -0.56686,-0.017 -0.58534,0.1479 -0.0415,0.37047 0.49595,0.20298 1.12188,0.59434 1.21409,0.7591 0.091,0.16259 -0.29471,0.31813 -0.61463,0.24787 -0.32301,-0.0709 -0.36017,0.0622 -0.0714,0.25565 0.1346,0.0902 0.24483,0.22419 0.24496,0.2978 1.3e-4,0.0736 0.11311,0.22035 0.25106,0.32607 0.35331,0.27077 0.20591,0.43945 -0.32492,0.3718 -0.23207,-0.0296 -0.60256,0.003 -0.92949,0.081 -0.29899,0.0716 -0.79305,0.13076 -1.0979,0.13144 -0.40882,9.1e-4 -0.58393,0.0369 -0.66723,0.13733 -0.19828,0.23891 -1.20995,0.10975 -2.29108,-0.29251 -0.50598,-0.18826 -1.14577,-0.39548 -1.42176,-0.4605 -0.98829,-0.23281 -2.72437,-1.22248 -3.63803,-2.07391 -0.115,-0.10716 -0.44812,-0.38294 -0.74028,-0.61284 -0.29216,-0.2299 -0.72943,-0.576 -0.97173,-0.76911 -0.60842,-0.48491 -2.97065,-2.0737 -4.72774,-3.17977 -0.80497,-0.50673 -1.82111,-1.17041 -2.25809,-1.47485 -2.82188,-1.966 -3.64146,-2.37828 -5.41755,-2.72524 -2.37698,-0.46434 -4.25038,-0.38455 -7.1274,0.30356 -0.94082,0.22502 -1.52521,0.40307 -2.2581,0.688 -0.48287,0.18773 -0.54199,0.21262 -1.21004,0.50943 -0.22853,0.10154 -0.50139,0.21726 -0.60633,0.25716 -0.37417,0.14226 -0.22167,0.28415 0.52006,0.48389 1.15121,0.31002 1.6554,0.46701 2.93517,0.91395 0.78637,0.27463 1.5767,0.5955 1.75629,0.71304 0.17959,0.11755 0.42848,0.23852 0.55308,0.26883 0.42639,0.10372 0.45551,0.26902 0.0743,0.42157 -0.39366,0.15751 -0.43053,0.24601 -0.13356,0.32054 0.12753,0.032 0.20908,0.11205 0.20908,0.20519 0,0.18199 0.22704,0.40039 0.45998,0.44249 0.11881,0.0215 0.17478,0.10761 0.19318,0.2973 0.0171,0.17645 0.081,0.28455 0.18817,0.31858 0.26165,0.083 0.20841,0.37535 -0.0677,0.37182 -0.21681,-0.003 -1.00725,-0.1658 -1.42176,-0.29325 -0.28009,-0.0861 -0.22748,0.0703 0.0836,0.24869 0.71032,0.40724 1.56812,1.01156 1.56812,1.10473 0,0.22183 -0.33546,0.19611 -0.88657,-0.068 -0.0966,-0.0463 -0.26599,-0.0714 -0.37635,-0.0558 -0.21518,0.0304 -0.24557,0.01 0.9493,0.63787 0.64223,0.33748 0.4516,0.55073 -0.27621,0.30899 -0.31423,-0.10437 -0.45359,-0.11761 -0.52164,-0.0496 -0.068,0.068 -0.064,0.0928 0.0153,0.0928 0.0965,0 0.52225,0.29536 1.15566,0.80172 0.29987,0.23973 0.18388,0.36839 -0.33619,0.37291 -0.58834,0.005 -1.05628,0.19851 -0.68504,0.28312 0.7751,0.17667 1.08269,0.27884 1.04541,0.34725 -0.023,0.0422 -0.11708,0.0668 -0.20908,0.0547 -1.01132,-0.13336 -1.02432,-0.1307 -0.71129,0.14528 0.16077,0.14174 0.42538,0.29355 0.58802,0.33734 0.53214,0.14329 0.67383,0.30231 0.37417,0.41994 -0.24547,0.0964 -0.24682,0.10006 -0.0627,0.17082 0.1035,0.0398 0.18818,0.12999 0.18818,0.20047 0,0.17263 -0.35295,0.15627 -1.6947,-0.0786 -0.21394,-0.0375 -0.22701,-0.0241 -0.17588,0.1796 0.0552,0.22006 0.0552,0.22006 -0.77248,0.16655 -1.46876,-0.0949 -2.66038,-0.21778 -2.9598,-0.30512 -0.36653,-0.1069 -1.65391,-0.1147 -1.54358,-0.009 0.092,0.0879 2.65753,1.09558 3.21569,1.26308 0.20699,0.0621 0.41842,0.14428 0.46985,0.18259 0.0514,0.0383 0.37132,0.083 0.71088,0.0993 0.37313,0.0179 0.7277,0.0875 0.89626,0.17584 0.38439,0.20152 0.23472,0.33698 -0.25657,0.2322 -0.36045,-0.0769 -0.36943,-0.0737 -0.33299,0.11693 0.0582,0.30467 -0.28219,0.23663 -1.98964,-0.39766 -1.14235,-0.42437 -1.8291,-0.44616 -0.98454,-0.0312 0.35469,0.17426 0.50948,0.37394 0.28986,0.37394 -0.10062,0 -1.28112,-0.43784 -2.02299,-0.75032 -0.58002,-0.2443 -0.87569,-0.32491 -0.92127,-0.25115 -0.0277,0.0448 0.0225,0.0815 0.11158,0.0815 0.0891,0 0.20882,0.0564 0.26608,0.12545 0.0573,0.069 0.14359,0.12545 0.19183,0.12545 0.0482,0 0.14713,0.0527 0.21975,0.11713 0.0726,0.0644 0.32021,0.22116 0.5502,0.3483 0.80241,0.44358 1.00799,0.5609 1.65681,0.94549 0.35927,0.21295 0.72621,0.42434 0.81542,0.46975 0.0892,0.0454 0.16221,0.13262 0.16221,0.19381 0,0.16198 -0.19007,0.0881 -1.79811,-0.69881 -2.11522,-1.03512 -3.04189,-1.38323 -4.34875,-1.63362 -1.05963,-0.20303 -1.11167,-0.20176 -1.14435,0.028 -0.031,0.21763 -0.0599,0.21759 -0.90483,-10e-4 -1.03472,-0.26784 -1.57656,-0.35569 -2.71807,-0.4407 -0.59798,-0.0445 -1.24718,-0.10373 -1.44267,-0.13154 -0.44655,-0.0635 -0.45303,0.0454 -0.0147,0.24763 0.36874,0.17009 0.39427,0.33224 0.0586,0.37227 -0.12842,0.0153 -0.23205,0.0908 -0.2573,0.18731 -0.0472,0.18065 -0.33257,0.11525 -1.0283,-0.23573 -0.45646,-0.23027 -0.69894,-0.14308 -0.45711,0.16436 0.33736,0.42889 0.0626,0.43667 -0.72635,0.0206 -1.13498,-0.5986 -3.48981,-1.03132 -3.10785,-0.57109 0.0735,0.0886 0.0598,0.12719 -0.061,0.17186 -0.0857,0.0317 -0.18267,0.098 -0.21554,0.14734 -0.0406,0.061 -0.66093,0.0799 -1.93679,0.0591 -2.06957,-0.0337 -2.13849,-0.0226 -1.90347,0.30827 0.54173,0.76256 0.5211,1.76058 -0.0611,2.95922 -0.59984,1.23483 -2.47805,2.56211 -5.12383,3.62085 -0.75302,0.30133 -1.4444,0.58075 -1.5364,0.62093 -0.092,0.0402 -0.29898,0.12992 -0.45998,0.19943 -1.09757,0.47389 -2.21417,0.99955 -3.88893,1.8308 -5.35859,2.65966 -10.61867,3.93702 -16.22481,3.94003 -1.57927,8.5e-4 -1.98214,-0.044 -3.59622,-0.40041 -0.32199,-0.0711 -1.16877,-0.24267 -1.88175,-0.38129 -0.71297,-0.13861 -1.57943,-0.30751 -1.92547,-0.37533 -0.992203,-0.19446 -1.19526,-0.13783 -0.604423,0.16856 0.172493,0.0894 0.520613,0.29791 0.773603,0.46324 0.77301,0.50515 1.94114,0.98858 2.74428,1.13571 0.52518,0.0962 1.21317,0.44519 1.45425,0.73765 0.15131,0.18357 0.3345,0.29892 0.53421,0.33639 0.28287,0.0531 0.30055,0.0739 0.25507,0.30136 -0.0508,0.25415 -0.0279,0.27049 0.48919,0.34862 0.0915,0.0138 0.17996,0.096 0.19665,0.18267 0.0259,0.13462 -0.007,0.15015 -0.22363,0.10675 -0.21716,-0.0434 -0.25778,-0.024 -0.28028,0.13421 -0.023,0.16164 -0.0897,0.19041 -0.52811,0.22784 -0.48077,0.041 -0.48953,0.0458 -0.20908,0.11331 1.22725,0.29548 1.99013,0.722 1.29138,0.722 -0.11228,0 -0.20415,0.0241 -0.20415,0.0535 0,0.10292 0.2943,0.27573 0.47405,0.27837 0.0997,0.001 0.24183,0.0259 0.31576,0.0542 0.20235,0.0777 -0.004,0.28295 -0.28398,0.28295 -0.18099,0 -0.22506,0.0377 -0.21975,0.18818 0.006,0.18205 -0.0163,0.18763 -0.69825,0.17145 -0.38768,-0.009 -0.76403,0.0179 -0.83633,0.0602 -0.10942,0.064 -0.10163,0.0773 0.0465,0.0794 0.0979,0.001 0.22478,0.059 0.28205,0.12799 0.0573,0.069 0.13377,0.12545 0.17002,0.12545 0.0362,0 0.34212,0.15755 0.67973,0.35012 0.86142,0.49134 1.34964,0.73635 1.46812,0.73676 0.0559,1.9e-4 0.14188,0.0756 0.19112,0.16762 0.10545,0.19703 -0.13154,0.23703 -0.43672,0.0737 -0.14661,-0.0785 -0.1982,-0.0626 -0.31963,0.0984 -0.14481,0.19197 -0.14481,0.19197 -0.67649,0.0177 -0.70986,-0.23274 -0.77157,-0.15705 -0.20161,0.24729 0.56615,0.40163 0.55635,0.51931 -0.0451,0.54127 -0.49116,0.0179 -1.01596,-0.24585 -1.95851,-0.98437 -0.89787,-0.70351 -0.73831,-0.38425 0.212,0.42421 0.55877,0.47536 0.74254,0.66564 0.74712,0.77361 0.005,0.12871 -0.30103,0.0447 -0.63008,-0.17264 z m 54.95239,-49.43644 c -0.092,-0.0367 -0.33662,-0.0391 -0.54361,-0.005 -0.36326,0.0595 -0.35744,0.0618 0.16727,0.0668 0.35037,0.003 0.48415,-0.0186 0.37634,-0.0616 z m -4.0562,-6.95751 c 0,-0.0406 0.0583,-0.0739 0.12947,-0.0739 0.14836,0 0.87911,-0.4578 1.25048,-0.78341 0.30633,-0.26858 0.12735,-0.29269 -0.2377,-0.032 -0.14493,0.1035 -0.39668,0.26345 -0.55944,0.35544 -1.01878,0.57584 -1.20265,0.72624 -0.79189,0.64772 0.115,-0.022 0.20908,-0.0732 0.20908,-0.11385 z"
       id="path2" /></g></svg>
